HIERARCHY
ROOT Hips
{
    OFFSET   0.000000   0.000000   0.000000
    CHANNELS 6 Xposition Yposition Zposition Zrotation Xrotation Yrotation
    JOINT Chest
    {
        OFFSET   0.000000   8.007230   0.000000
        CHANNELS 3 Zrotation Xrotation Yrotation
        JOINT Chest2
        {
            OFFSET   0.000000  22.077100   0.000000
            CHANNELS 3 Zrotation Xrotation Yrotation
            JOINT Neck
            {
                OFFSET   0.000000  23.254800   0.000000
                CHANNELS 3 Zrotation Xrotation Yrotation
                JOINT Head
                {
                    OFFSET   0.000010  14.370000   1.956600
                    CHANNELS 3 Zrotation Xrotation Yrotation
                    End Site
                    {
                        OFFSET   0.000000  19.566000   0.000000
                    }
                }
            }
            JOINT LeftCollar
            {
                OFFSET   3.911900  19.017000  -0.467062
                CHANNELS 3 Zrotation Xrotation Yrotation
                JOINT LeftShoulder
                {
                    OFFSET  10.383700   0.000000   0.000000
                    CHANNELS 3 Zrotation Xrotation Yrotation
                    JOINT LeftElbow
                    {
                        OFFSET  26.662100   0.001193   0.000835
                        CHANNELS 3 Zrotation Xrotation Yrotation
                        JOINT LeftWrist
                        {
                            OFFSET  28.869000  -0.000058  -0.000075
                            CHANNELS 3 Zrotation Xrotation Yrotation
                            JOINT LeftFinger0
                            {
                                OFFSET   2.044660  -2.323460   3.252850
                                CHANNELS 3 Zrotation Xrotation Yrotation
                                JOINT LeftFinger01
                                {
                                    OFFSET   3.088130   0.000000   0.000000
                                    CHANNELS 3 Zrotation Xrotation Yrotation
                                    JOINT LeftFinger02
                                    {
                                        OFFSET   2.639450   0.000000   0.000000
                                        CHANNELS 3 Zrotation Xrotation Yrotation
                                        End Site
                                        {
                                            OFFSET   2.582190   0.000000   0.000000
                                        }
                                    }
                                }
                            }
                            JOINT LeftFinger1
                            {
                                OFFSET   8.364480   0.000000   3.252850
                                CHANNELS 3 Zrotation Xrotation Yrotation
                                JOINT LeftFinger11
                                {
                                    OFFSET   4.646920   0.000000   0.000000
                                    CHANNELS 3 Zrotation Xrotation Yrotation
                                    JOINT LeftFinger12
                                    {
                                        OFFSET   2.323460   0.000000   0.000000
                                        CHANNELS 3 Zrotation Xrotation Yrotation
                                        End Site
                                        {
                                            OFFSET   2.273050   0.000000   0.000000
                                        }
                                    }
                                }
                            }
                            JOINT LeftFinger2
                            {
                                OFFSET   8.364490   0.000016   1.078090
                                CHANNELS 3 Zrotation Xrotation Yrotation
                                JOINT LeftFinger21
                                {
                                    OFFSET   5.111620   0.000000   0.000000
                                    CHANNELS 3 Zrotation Xrotation Yrotation
                                    JOINT LeftFinger22
                                    {
                                        OFFSET   2.788150   0.000012   0.000000
                                        CHANNELS 3 Zrotation Xrotation Yrotation
                                        End Site
                                        {
                                            OFFSET   2.727660   0.000000   0.000000
                                        }
                                    }
                                }
                            }
                            JOINT LeftFinger3
                            {
                                OFFSET   7.899780   0.000014  -1.078090
                                CHANNELS 3 Zrotation Xrotation Yrotation
                                JOINT LeftFinger31
                                {
                                    OFFSET   4.646930   0.000000   0.000000
                                    CHANNELS 3 Zrotation Xrotation Yrotation
                                    JOINT LeftFinger32
                                    {
                                        OFFSET   2.323470   0.000000   0.000000
                                        CHANNELS 3 Zrotation Xrotation Yrotation
                                        End Site
                                        {
                                            OFFSET   2.273050   0.000000   0.000000
                                        }
                                    }
                                }
                            }
                            JOINT LeftFinger4
                            {
                                OFFSET   7.435090   0.000000  -3.252850
                                CHANNELS 3 Zrotation Xrotation Yrotation
                                JOINT LeftFinger41
                                {
                                    OFFSET   3.717550   0.000000   0.000000
                                    CHANNELS 3 Zrotation Xrotation Yrotation
                                    JOINT LeftFinger42
                                    {
                                        OFFSET   1.858770   0.000000   0.000000
                                        CHANNELS 3 Zrotation Xrotation Yrotation
                                        End Site
                                        {
                                            OFFSET   1.818440   0.000000   0.000000
                                        }
                                    }
                                }
                            }
                        }
                    }
                }
            }
            JOINT RightCollar
            {
                OFFSET  -3.911900  19.017000  -0.467063
                CHANNELS 3 Zrotation Xrotation Yrotation
                JOINT RightShoulder
                {
                    OFFSET -10.383700   0.000023   0.000000
                    CHANNELS 3 Zrotation Xrotation Yrotation
                    JOINT RightElbow
                    {
                        OFFSET -26.662100   0.001246   0.001011
                        CHANNELS 3 Zrotation Xrotation Yrotation
                        JOINT RightWrist
                        {
                            OFFSET -28.869000  -0.000026  -0.000078
                            CHANNELS 3 Zrotation Xrotation Yrotation
                            JOINT RightFinger0
                            {
                                OFFSET  -2.044660  -2.323490   3.252850
                                CHANNELS 3 Zrotation Xrotation Yrotation
                                JOINT RightFinger01
                                {
                                    OFFSET  -3.088130   0.000000   0.000000
                                    CHANNELS 3 Zrotation Xrotation Yrotation
                                    JOINT RightFinger02
                                    {
                                        OFFSET  -2.639460   0.000000   0.000000
                                        CHANNELS 3 Zrotation Xrotation Yrotation
                                        End Site
                                        {
                                            OFFSET  -2.582190   0.000000   0.000000
                                        }
                                    }
                                }
                            }
                            JOINT RightFinger1
                            {
                                OFFSET  -8.364480   0.000000   3.252850
                                CHANNELS 3 Zrotation Xrotation Yrotation
                                JOINT RightFinger11
                                {
                                    OFFSET  -4.646920   0.000000   0.000000
                                    CHANNELS 3 Zrotation Xrotation Yrotation
                                    JOINT RightFinger12
                                    {
                                        OFFSET  -2.323470   0.000000   0.000000
                                        CHANNELS 3 Zrotation Xrotation Yrotation
                                        End Site
                                        {
                                            OFFSET  -2.273050   0.000000   0.000000
                                        }
                                    }
                                }
                            }
                            JOINT RightFinger2
                            {
                                OFFSET  -8.364480   0.000000   1.078090
                                CHANNELS 3 Zrotation Xrotation Yrotation
                                JOINT RightFinger21
                                {
                                    OFFSET  -5.111620   0.000000   0.000000
                                    CHANNELS 3 Zrotation Xrotation Yrotation
                                    JOINT RightFinger22
                                    {
                                        OFFSET  -2.788160   0.000000   0.000000
                                        CHANNELS 3 Zrotation Xrotation Yrotation
                                        End Site
                                        {
                                            OFFSET  -2.727660   0.000000   0.000000
                                        }
                                    }
                                }
                            }
                            JOINT RightFinger3
                            {
                                OFFSET  -7.899780   0.000000  -1.078090
                                CHANNELS 3 Zrotation Xrotation Yrotation
                                JOINT RightFinger31
                                {
                                    OFFSET  -4.646930   0.000000   0.000000
                                    CHANNELS 3 Zrotation Xrotation Yrotation
                                    JOINT RightFinger32
                                    {
                                        OFFSET  -2.323470   0.000000   0.000000
                                        CHANNELS 3 Zrotation Xrotation Yrotation
                                        End Site
                                        {
                                            OFFSET  -2.273050   0.000000   0.000000
                                        }
                                    }
                                }
                            }
                            JOINT RightFinger4
                            {
                                OFFSET  -7.435090   0.000000  -3.252850
                                CHANNELS 3 Zrotation Xrotation Yrotation
                                JOINT RightFinger41
                                {
                                    OFFSET  -3.717550   0.000000   0.000000
                                    CHANNELS 3 Zrotation Xrotation Yrotation
                                    JOINT RightFinger42
                                    {
                                        OFFSET  -1.858760   0.000000   0.000000
                                        CHANNELS 3 Zrotation Xrotation Yrotation
                                        End Site
                                        {
                                            OFFSET  -1.818440   0.000000   0.000000
                                        }
                                    }
                                }
                            }
                        }
                    }
                }
            }
        }
    }
    JOINT LeftHip
    {
        OFFSET   9.783010   0.000000   0.000000
        CHANNELS 3 Zrotation Xrotation Yrotation
        JOINT LeftKnee
        {
            OFFSET   0.000073 -41.789100   0.001749
            CHANNELS 3 Zrotation Xrotation Yrotation
            JOINT LeftAnkle
            {
                OFFSET   0.000111 -41.133200  -0.000179
                CHANNELS 3 Zrotation Xrotation Yrotation
                JOINT LeftToe
                {
                    OFFSET   0.000000  -6.358960  14.674500
                    CHANNELS 3 Zrotation Xrotation Yrotation
                    End Site
                    {
                        OFFSET   0.000000   0.000000   3.913200
                    }
                }
            }
        }
    }
    JOINT RightHip
    {
        OFFSET  -9.783010   0.000000   0.000000
        CHANNELS 3 Zrotation Xrotation Yrotation
        JOINT RightKnee
        {
            OFFSET   0.000424 -41.789200   0.005205
            CHANNELS 3 Zrotation Xrotation Yrotation
            JOINT RightAnkle
            {
                OFFSET   0.000000 -41.133200  -0.000155
                CHANNELS 3 Zrotation Xrotation Yrotation
                JOINT RightToe
                {
                    OFFSET   0.000000  -6.358960  14.674500
                    CHANNELS 3 Zrotation Xrotation Yrotation
                    End Site
                    {
                        OFFSET   0.000000   0.000000   3.913200
                    }
                }
            }
        }
    }
}
MOTION
Frames: 4
Frame Time:   0.016667
 -0.968245  89.591900   0.423920  -2.484670 -10.138700  -1.111870   0.648394   5.458270   0.362709   1.270610  10.920200   0.667595   0.559179  -1.656740   0.014626   0.924532  -3.358390   3.602530  -6.419690  -1.971800   0.474444 -73.148600  16.336500   1.725690  -2.713960  -8.796430 -16.927000  10.653600  -4.571210  -0.028200  37.938800  29.338500 -56.883300 -31.605700   0.000565   0.000371 -10.802800   0.003510  -0.000426 -25.215800   4.143380  -8.723180 -20.889800  -0.005238   0.000121 -14.622900  -0.004097  -0.001857 -26.449900  -0.952218   1.913310 -26.465800  -0.002191  -0.003418 -17.626200  -0.003779  -0.013073 -26.395300  -0.950351   1.914260 -26.411200  -0.000469  -0.001072 -17.589800  -0.011380  -0.004205 -24.635900  -0.891074   1.942570 -36.976500  -0.000682  -0.001186 -24.626300  -0.011698  -0.002160  10.802200   0.095400   7.372830  69.983100  11.508400  -5.715080  -2.208550  -4.795300  15.057000 -12.918800  -5.326110   4.310640 -40.143900  27.984000  61.875800  24.781500  -0.008247  -0.010205   7.390740  -0.003464  -0.007749  26.770200   8.158230  15.705000  22.825300   0.001926  -0.003384  15.977700   0.000675  -0.002671  28.127600   2.567220   4.810330  33.715100  -0.006238  -0.001732  22.454200   0.010888   0.012194  28.466300   2.595000   4.795210  37.053000   0.001686   0.002031  24.677300   0.001857   0.000807  25.224800   1.905540   4.035450  37.934100   0.000731  -0.000991  25.266700  -0.001413  -0.000645   2.343510  12.020400   5.006640   1.461780  -0.024390   5.542030  -1.236010  -2.520620   2.181890   0.000000   0.000000   0.000000   3.676730  10.806700   0.615583  -1.077630   2.611130  -9.048380  -0.577805  -4.261930  -1.868540  -0.000000   0.000000   0.000000
 -0.968331  89.591900   0.411044  -2.490410 -10.147900  -1.111910   0.648534   5.466260   0.362696   1.270850  10.936200   0.667555   0.558986  -1.656820   0.014630   0.924100  -3.358470   3.598950  -6.420010  -1.971660   0.473899 -73.147500  16.348700   1.720710  -2.717750  -8.802200 -16.939300  10.646800  -4.603110  -0.027664  37.953400  29.377600 -56.891800 -31.616400   0.000568   0.000390 -10.808200   0.003509  -0.000427 -25.238200   4.135760  -8.697240 -20.906700  -0.005238   0.000127 -14.635600  -0.004099  -0.001861 -26.472800  -0.968498   1.943930 -26.489300  -0.002185  -0.003416 -17.641800  -0.003781  -0.013074 -26.509300  -0.969774   1.943310 -26.525700  -0.000467  -0.001071 -17.666100  -0.011382  -0.004203 -24.763900  -0.910119   1.971960 -37.169400  -0.000677  -0.001183 -24.754700  -0.011704  -0.002156  10.802200   0.095307   7.372250  69.981700  11.511200  -5.705640  -2.209650  -4.789790  15.063700 -12.926500  -5.341740   4.303920 -40.138500  27.981600  61.876700  24.789700  -0.008261  -0.010214   7.394860  -0.003465  -0.007747  26.779300   8.158640  15.698600  22.832600   0.001923  -0.003380  15.982800   0.000675  -0.002670  28.128100   2.567260   4.799130  33.730000  -0.006238  -0.001734  22.464200   0.010888   0.012194  28.466900   2.595050   4.784080  37.071400   0.001687   0.002029  24.689500   0.001853   0.000803  25.225300   1.905400   4.035270  37.933900   0.000731  -0.000990  25.267100  -0.001415  -0.000646   2.345940  12.000300   5.006170   1.461120   0.024022   5.541470  -1.230100  -2.535500   2.181900   0.000000   0.000000   0.000000   3.704380  10.781900   0.643086  -1.110310   2.663290  -9.078560  -0.563436  -4.279240  -1.868580   0.000000   0.000000   0.000000
 -0.968481  89.591900   0.389627  -2.500090 -10.166400  -1.111970   0.648644   5.480750   0.362582   1.271030  10.965200   0.667091   0.558721  -1.656900   0.014643   0.923487  -3.358630   3.592180  -6.420340  -1.971520   0.473354 -73.144700  16.376800   1.708100  -2.724440  -8.817390 -16.952100  10.629500  -4.657530  -0.027129  37.968000  29.416800 -56.900400 -31.627100   0.000571   0.000418 -10.813600   0.003508  -0.000435 -25.268200   4.128130  -8.671300 -20.930100  -0.005241   0.000141 -14.651100  -0.004102  -0.001871 -26.514100  -0.993703   1.990830 -26.531400  -0.002171  -0.003412 -17.669900  -0.003784  -0.013076 -26.676000  -0.999340   1.988020 -26.693300  -0.000461  -0.001067 -17.777800  -0.011387  -0.004198 -24.964400  -0.939531   2.016980 -37.471400  -0.000664  -0.001174 -24.955900  -0.011717  -0.002146  10.802200   0.095215   7.371670  69.979400  11.517800  -5.690010  -2.210370  -4.784180  15.074900 -12.934500  -5.357390   4.294410 -40.123400  27.975600  61.882400  24.803900  -0.008275  -0.010223   7.401950  -0.003466  -0.007741  26.793500   8.159150  15.689900  22.843800   0.001918  -0.003374  15.990600   0.000674  -0.002668  28.128500   2.567300   4.787930  33.753000  -0.006235  -0.001737  22.479500   0.010889   0.012192  28.467600   2.595090   4.772950  37.093700   0.001690   0.002020  24.704400   0.001848   0.000794  25.225700   1.905190   4.035090  37.933700   0.000730  -0.000989  25.267600  -0.001417  -0.000648   2.348490  11.980200   5.005120   1.460460   0.072434   5.540920  -1.219230  -2.550390   2.181910   0.000000   0.000000   0.000000   3.751630  10.740400   0.690144  -1.164600   2.757520  -9.132700  -0.539526  -4.312120  -1.868660  -0.000000   0.000000   0.000000
 -0.968644  89.591900   0.372763  -2.508080 -10.187700  -1.111510   0.648666   5.494510   0.361398   1.271180  10.992700   0.664473   0.558629  -1.656790   0.014671   0.922964  -3.358830   3.583020  -6.418330  -1.971510   0.476632 -73.140100  16.414700   1.687940  -2.725270  -8.840080 -16.946000  10.598700  -4.704800  -0.029847  37.973100  29.409500 -56.904800 -31.609800   0.000558   0.000432 -10.805000   0.003518  -0.000456 -25.278600   4.131570  -8.676180 -20.939200  -0.005250   0.000160 -14.654100  -0.004106  -0.001883 -26.556900  -1.012300   2.025000 -26.574900  -0.002150  -0.003405 -17.698900  -0.003785  -0.013081 -26.762000  -1.019690   2.021310 -26.780100  -0.000450  -0.001059 -17.835500  -0.011390  -0.004190 -25.103600  -0.960176   2.050110 -37.681200  -0.000644  -0.001162 -25.095600  -0.011732  -0.002129  10.802000   0.095371   7.375250  69.976900  11.526200  -5.676780  -2.208390  -4.788640  15.083000 -12.926200  -5.357380   4.290070 -40.103900  27.966700  61.903900  24.817000  -0.008266  -0.010211   7.408520  -0.003465  -0.007728  26.804100   8.159190  15.687900  22.852200   0.001912  -0.003371  15.996500   0.000666  -0.002661  28.128200   2.569830   4.788250  33.770300  -0.006227  -0.001739  22.491000   0.010898   0.012189  28.467500   2.597540   4.773330  37.098400   0.001696   0.002005  24.707500   0.001847   0.000780  25.225600   1.905110   4.035140  37.935800   0.000735  -0.000990  25.267500  -0.001417  -0.000654   2.347500  12.000400   5.001500   1.460020   0.035452   5.541860  -1.208370  -2.523620   2.185340   0.000000   0.000000  -0.000000   3.791490  10.705600   0.732597  -1.206880   2.850390  -9.187840  -0.520362  -4.347930  -1.868850  -0.000000   0.000000  -0.000000
